<mxfile host="app.diagrams.net" modified="2024-06-27T09:31:32.278Z" agent="Mozilla/5.0 (Macintosh; Intel Mac OS X 10_15_7) AppleWebKit/537.36 (KHTML, like Gecko) Chrome/126.0.0.0 Safari/537.36" version="24.5.4" etag="Oqqhv1eynxyrurW1zT1E" type="github">
  <diagram name="Страница — 1" id="yagPbyhRDKbHCAyz2T_a">
    <mxGraphModel>
      <root>
        <mxCell id="0" />
        <mxCell id="1" parent="0" />
      </root>
    </mxGraphModel>
  </diagram>
</mxfile>
